<?xml version="1.0" encoding="UTF-8"?>
<svg width="1600" height="900" viewBox="0 0 1600 900" xmlns="http://www.w3.org/2000/svg">
  <defs>
    <!-- Simple pixel cloud -->
    <g id="cloud">
      <rect x="0" y="4" width="20" height="12" fill="#FFFFFF" stroke="#000" stroke-width="4"/>
      <rect x="14" y="0" width="24" height="16" fill="#FFFFFF" stroke="#000" stroke-width="4"/>
      <rect x="32" y="6" width="18" height="12" fill="#FFFFFF" stroke="#000" stroke-width="4"/>
    </g>
  </defs>

  <!-- Sky (bluebird day) -->
  <rect width="1600" height="900" fill="#EAF6FF"/>

  <!-- Far mountains -->
  <g fill="#BFD9FF" stroke="#000" stroke-width="6" vector-effect="non-scaling-stroke" shape-rendering="crispEdges">
    <!-- big far ridge -->
    <path d="M-50 720 L 250 520 L 420 600 L 600 460 L 820 620 L 1000 520 L 1220 640 L 1440 520 L 1700 720 L 1700 950 L -50 950 Z"/>
    <!-- snow caps as blocky shapes -->
    <path d="M560 540 L 600 500 L 640 540 L 620 548 L 600 532 L 580 548 Z" fill="#FFFFFF"/>
    <path d="M960 560 L 1000 520 L 1040 560 L 1020 568 L 1000 552 L 980 568 Z" fill="#FFFFFF"/>
    <path d="M380 590 L 420 560 L 460 590 L 444 598 L 420 580 L 396 598 Z" fill="#FFFFFF"/>
  </g>

  <!-- Near mountains -->
  <g fill="#90C2FF" stroke="#000" stroke-width="8" vector-effect="non-scaling-stroke" shape-rendering="crispEdges">
    <path d="M-80 780 L 160 560 L 280 640 L 420 520 L 560 660 L 720 520 L 900 700 L 1080 560 L 1280 700 L 1500 580 L 1720 780 L 1720 980 L -80 980 Z"/>
    <!-- snow caps -->
    <path d="M136 604 L 160 580 L 184 604 L 172 612 L 160 600 L 148 612 Z" fill="#FFFFFF"/>
    <path d="M520 610 L 560 570 L 600 610 L 584 620 L 560 600 L 536 620 Z" fill="#FFFFFF"/>
    <path d="M860 660 L 900 620 L 940 660 L 924 670 L 900 650 L 876 670 Z" fill="#FFFFFF"/>
    <path d="M1240 650 L 1280 610 L 1320 650 L 1304 660 L 1280 640 L 1256 660 Z" fill="#FFFFFF"/>
  </g>

  <!-- Ground band to ensure bottom edge stays filled on tall screens -->
  <rect x="-10" y="820" width="1620" height="120" fill="#78B2FF" stroke="#000" stroke-width="8" vector-effect="non-scaling-stroke"/>

  <!-- A few pixel clouds -->
  <g transform="translate(180,140) scale(2)">
    <use href="#cloud"/>
  </g>
  <g transform="translate(1080,180) scale(2)">
    <use href="#cloud"/>
  </g>
  <g transform="translate(740,100) scale(1.6)">
    <use href="#cloud"/>
  </g>
</svg>